<svg width="1254" height="1254" viewBox="0 0 1254 1254" fill="none" xmlns="http://www.w3.org/2000/svg">
<path fill-rule="evenodd" clip-rule="evenodd" d="M382.5 129.132C331.974 132.7 285.474 146.173 252.792 166.715C232.415 179.522 213.893 195.727 198.176 214.5C169.149 249.172 150.439 295.164 144.512 346.419C141.247 374.649 140.845 411.987 141.255 649C141.618 859.066 141.827 884.056 143.338 898C147.692 938.175 155.246 966.422 169.413 995.5C191.978 1041.82 226.697 1076.7 272.5 1099.07C302.33 1113.64 337.287 1122.24 382 1126.01C398.706 1127.42 853.999 1127.4 873 1125.99C945.718 1120.59 999.557 1098.76 1041.09 1057.85C1080.41 1019.11 1103.37 969.917 1110.52 909.091C1113.85 880.792 1114.14 853.263 1113.71 609C1113.27 358.046 1113.35 362.559 1108.94 334C1098.02 263.412 1062.95 206.883 1007.37 170.313C970.372 145.968 924.724 132.4 868.5 129.036C847.729 127.794 400.205 127.882 382.5 129.132ZM836.341 326.044C810.621 330.599 791.03 353.712 791.03 379.5C791.03 393.886 796.547 406.647 807.46 417.503C818.304 428.29 830.653 433.401 845.5 433.249C860.781 433.093 871.934 428.291 883.022 417.095C894.241 405.767 898.965 394.781 898.988 379.96C899.033 351.207 877.198 327.768 848.383 325.639C844.597 325.359 839.179 325.541 836.341 326.044ZM678.574 359.25C675.272 362.409 634.121 417.005 573.617 498.5C557.284 520.5 542.111 540.16 539.899 542.19C537.688 544.219 533.543 546.669 530.689 547.634C520.471 551.089 517.156 550.549 433 531.709C339.051 510.677 343.186 511.478 338.545 513.417C333.83 515.387 332.352 519.122 334.312 524.112C335.642 527.497 346.654 546.244 386.821 613.5C395.361 627.8 405.263 644.45 408.825 650.5C412.387 656.55 415.904 662.49 416.641 663.7C418.376 666.549 423.999 668.115 428.264 666.938C430.058 666.442 462.346 653.602 500.014 638.404C537.681 623.206 570.736 610.148 573.468 609.385C580.035 607.554 589.172 607.627 593.768 609.548C601.385 612.73 605.005 618.102 604.99 626.2C604.974 634.808 601.461 640.854 589.705 652.51C573.894 668.185 570.81 670.297 503.5 711.537C487.55 721.309 470 732.107 464.5 735.532C459 738.957 441.9 749.523 426.5 759.012C411.1 768.501 391.3 780.784 382.5 786.308C346.321 809.018 248.689 873.077 247.62 874.805C246.082 877.295 250.829 876.475 263.63 872.039C276.304 867.648 301.877 858.235 367.5 833.807C440.424 806.66 437.581 807.592 447.5 807.583C454.522 807.576 457.516 808.036 461.122 809.675C471.834 814.541 478.806 824.854 480.947 839C481.571 843.125 484.342 859.1 487.104 874.5C489.866 889.9 494.573 916.675 497.564 934C504.71 975.389 504.71 975.388 507.293 977.751C514.053 983.935 518.205 981.463 529.165 964.73C533.09 958.739 540.921 946.782 548.089 935.837C549.628 933.488 551.135 931.186 552.567 929C568.506 904.664 595.136 863.683 619.822 825.5C628.356 812.3 636.42 800.316 637.742 798.869C639.064 797.422 642.47 794.974 645.31 793.428C655.61 787.822 656.301 787.899 748 804.928C858.262 825.403 852.838 824.508 857.862 823.051C862.024 821.843 863.927 819.447 863.968 815.36C864.005 811.697 854.409 796.602 816.062 740C802.462 719.925 786.268 695.984 780.076 686.797C770.558 672.678 768.289 669.92 765.398 668.966C762.195 667.909 760.724 668.375 742.239 676.304C731.382 680.96 704.725 692.637 683 702.251C599.305 739.293 600.766 738.725 591.875 737.672C584.761 736.829 580.504 733.886 578.39 728.35C575.09 719.711 579.455 710.283 592.902 697C608.304 681.786 624.171 671.818 684.5 639.459C800.671 577.148 930.197 504.732 1018.75 452.585C1024.26 449.342 1026.56 447 1024.23 447C1022.5 447 956.218 467.342 895 486.659C789.739 519.874 760.663 528.743 754.335 529.565C747.989 530.388 737.083 528.593 731.676 525.835C725.628 522.749 717.669 514.703 714.732 508.706C711.117 501.322 710.371 497.595 707.491 472.5C706.102 460.4 704.755 449.375 704.497 448C704.24 446.625 702 427.5 699.52 405.5C697.039 383.5 694.793 364.561 694.527 363.412C692.713 355.579 684.618 353.467 678.574 359.25Z" fill="url(#paint0_linear_215_12035)"/>
<path d="M678.574 359.25C675.272 362.409 634.121 417.005 573.617 498.5C557.284 520.5 542.111 540.16 539.899 542.19C537.688 544.219 533.543 546.669 530.689 547.634C520.471 551.089 517.156 550.549 433 531.709C339.051 510.677 343.186 511.478 338.545 513.417C333.83 515.387 332.352 519.122 334.312 524.112C335.642 527.497 346.654 546.244 386.821 613.5C395.361 627.8 405.263 644.45 408.825 650.5C412.387 656.55 415.904 662.49 416.641 663.7C418.376 666.549 423.999 668.115 428.264 666.938C430.058 666.442 462.346 653.602 500.014 638.404C537.681 623.206 570.736 610.148 573.468 609.385C580.035 607.554 589.172 607.627 593.768 609.548C601.385 612.73 605.005 618.102 604.99 626.2C604.974 634.808 601.461 640.854 589.705 652.51C573.894 668.185 570.81 670.297 503.5 711.537C487.55 721.309 470 732.107 464.5 735.532C459 738.957 441.9 749.523 426.5 759.012C411.1 768.501 391.3 780.784 382.5 786.308C346.321 809.018 248.689 873.077 247.62 874.805C246.082 877.295 250.829 876.475 263.63 872.039C276.304 867.648 301.877 858.235 367.5 833.807C440.424 806.66 437.581 807.592 447.5 807.583C454.522 807.576 457.516 808.036 461.122 809.675C471.834 814.541 478.806 824.854 480.947 839C481.571 843.125 484.342 859.1 487.104 874.5C489.866 889.9 494.573 916.675 497.564 934C504.71 975.389 504.71 975.388 507.293 977.751C514.053 983.935 518.205 981.463 529.165 964.73C533.09 958.739 540.921 946.782 548.089 935.837L552.567 929C568.506 904.664 595.136 863.683 619.822 825.5C628.356 812.3 636.42 800.316 637.742 798.869C639.064 797.422 642.47 794.974 645.31 793.428C655.61 787.822 656.301 787.899 748 804.928C858.262 825.403 852.838 824.508 857.862 823.051C862.024 821.843 863.927 819.447 863.968 815.36C864.005 811.697 854.409 796.602 816.062 740C802.462 719.925 786.268 695.984 780.076 686.797C770.558 672.678 768.289 669.92 765.398 668.966C762.195 667.909 760.724 668.375 742.239 676.304C731.382 680.96 704.725 692.637 683 702.251C599.305 739.293 600.766 738.725 591.875 737.672C584.761 736.829 580.504 733.886 578.39 728.35C575.09 719.711 579.455 710.283 592.902 697C608.304 681.786 624.171 671.818 684.5 639.459C800.671 577.148 930.197 504.732 1018.75 452.585C1024.26 449.342 1026.56 447 1024.23 447C1022.5 447 956.218 467.342 895 486.659C789.739 519.874 760.663 528.743 754.335 529.565C747.989 530.388 737.083 528.593 731.676 525.835C725.628 522.749 717.669 514.703 714.732 508.706C711.117 501.322 710.371 497.595 707.491 472.5C706.102 460.4 704.755 449.375 704.497 448C704.24 446.625 702 427.5 699.52 405.5C697.039 383.5 694.793 364.561 694.527 363.412C692.713 355.579 684.618 353.467 678.574 359.25Z" fill="white"/>
<path d="M836.341 326.044C810.621 330.599 791.03 353.712 791.03 379.5C791.03 393.886 796.547 406.647 807.46 417.503C818.304 428.29 830.653 433.401 845.5 433.249C860.781 433.093 871.934 428.291 883.022 417.095C894.241 405.767 898.965 394.781 898.988 379.96C899.033 351.207 877.198 327.768 848.383 325.639C844.597 325.359 839.179 325.541 836.341 326.044Z" fill="white"/>
<defs>
<linearGradient id="paint0_linear_215_12035" x1="627.495" y1="128.148" x2="627.495" y2="1127.06" gradientUnits="userSpaceOnUse">
<stop stop-color="#394025"/>
<stop offset="1" stop-color="#161615"/>
</linearGradient>
</defs>
</svg>
